<?xml version="1.0" encoding="iso-8859-1"?>
<!-- Generator: Adobe Illustrator 18.0.0, SVG Export Plug-In . SVG Version: 6.00 Build 0)  -->
<!DOCTYPE svg PUBLIC "-//W3C//DTD SVG 1.1//EN" "http://www.w3.org/Graphics/SVG/1.1/DTD/svg11.dtd">
<svg version="1.1" id="Capa_1" xmlns="http://www.w3.org/2000/svg" xmlns:xlink="http://www.w3.org/1999/xlink" x="0px" y="0px"
	 viewBox="0 0 347.153 347.153" style="enable-background:new 0 0 347.153 347.153;" xml:space="preserve">
<g>
	<path d="M123.385,169.855c-15.796,0-28.647,12.851-28.647,28.647s12.851,28.647,28.647,28.647s28.647-12.851,28.647-28.647
		S139.181,169.855,123.385,169.855z M123.385,210.74c-6.749,0-12.239-5.49-12.239-12.239c0-6.748,5.49-12.239,12.239-12.239
		c6.748,0,12.239,5.49,12.239,12.239C135.624,205.25,130.133,210.74,123.385,210.74z"/>
	<path d="M293.932,0.01V0.008l0.401-0.007l0.23,0.002c-0.028,0-0.042-0.002-0.07-0.002c-15.76,0.024-28.561,12.971-28.561,28.87
		v110.13c-16-14.841-35.718-22.988-57.22-22.988c-18.155,0-35.682,5.899-50.252,16.761l-36.989-37.024l-32.38,32.397l-64.869,27.032
		l25.71,62.03v0.008c0,0.828,0.678,1.649,0.924,2.469c3.388,11.83,9.942,22.717,18.712,31.495c2.322,2.322,4.391,4.504,6.983,6.481
		c9.03,6.888,19.381,11.558,30.381,13.677v47.195c0,15.781,13.116,28.619,28.896,28.619c8.16,0,15.667-3.439,20.885-8.937
		c5.265,5.486,12.569,8.917,20.814,8.917c15.735,0,28.405-12.831,28.405-28.599v-35.728c6,0.21,13-0.33,19-1.571v37.298
		c0,15.781,13.098,28.619,28.879,28.619c7.968,0,15.312-3.553,20.506-8.825c5.176,5.26,12.491,8.251,20.425,8.251h0.066
		c15.899,0,28.125-12.277,28.125-28.045V28.87C322.932,13.098,309.932,0.24,293.932,0.01z M51.568,177.409l-5.62-13.421
		l15.366-6.432C57.048,163.669,53.766,170.354,51.568,177.409z M81.265,239.553c-0.052-0.052-0.101-0.107-0.152-0.16
		c-2.69-2.716-5.094-5.683-7.164-8.86l0.005-0.002c-1.418-2.152-2.679-4.4-3.788-6.721c-0.16-0.331-0.317-0.664-0.47-0.999
		c-0.066-0.146-0.128-0.293-0.193-0.439c0.185-0.008,0.37-0.012,0.556-0.012c6.749,0,12.24,5.491,12.24,12.24
		C82.299,236.345,81.941,238.023,81.265,239.553z M147.932,313.197c0-0.111,0-0.212,0-0.327v5.663c0,6.733-5.267,12.211-12,12.211
		s-12-5.478-12-12.211v-45.958c8-0.319,16-2.085,24-5.209V313.197z M157.907,243.05c-4.307,3.602-9.057,6.514-14.127,8.672
		c-6.949,2.962-14.496,4.512-22.282,4.512c-9.415,0-18.728-2.383-26.962-6.804c2.681-4.424,4.171-9.545,4.171-14.83
		c0-15.797-12.852-28.648-28.648-28.648c-1.68,0-3.342,0.164-4.975,0.453c-0.289-2.329-0.447-4.678-0.447-7.041
		c0-15.177,5.915-29.461,16.654-40.207l16.293-16.293h0l12.544-12.544l11.379-11.371l24.932,24.932l11.625,11.625l3.651,3.651
		c22.167,22.175,22.167,58.248,0,80.423C160.491,240.803,159.22,241.959,157.907,243.05z M266.032,319.394
		c-0.444,6.332-6.053,11.351-12.496,11.351c-6.733,0-12.604-5.478-12.604-12.211v-42.403c9-3.826,17-9.228,25-16.074
		C265.932,260.057,266.023,319.108,266.032,319.394z M306.932,318.535c0,6.719-5.275,12.045-12.125,12.045h-0.066
		c-6.389,0-12.009-4.939-12.452-11.256c0.009-0.288-0.357-90.685-0.357-90.685c0-0.003,0-0.004,0-0.007v-8.306l-25.972,26.49
		c-12.659,12.659-29.255,19.624-47.049,19.624c-3.249,0-6.954-0.238-10.202-0.697l-9.776-1.346v54.138
		c0,6.719-5.133,12.191-11.877,12.191c-6.85,0-12.123-5.472-12.123-12.191v-60.414c2-2.1,5.668-4.414,8.195-6.941
		c28.558-28.566,28.652-75.058,0.094-103.624l-2.98-3.027c11.346-7.859,24.783-12.109,38.59-12.109
		c17.811,0,34.254,6.965,46.937,19.657l26.165,26.228V28.87c0-6.85,6.142-13.29,12.832-13.29h0.008h0.036
		c6.736,0,12.124,6.552,12.124,13.29V318.535z"/>
</g>
<g>
</g>
<g>
</g>
<g>
</g>
<g>
</g>
<g>
</g>
<g>
</g>
<g>
</g>
<g>
</g>
<g>
</g>
<g>
</g>
<g>
</g>
<g>
</g>
<g>
</g>
<g>
</g>
<g>
</g>
</svg>
